<?xml version="1.0" encoding="utf-8"?>
<!-- Generator: Adobe Illustrator 23.1.0, SVG Export Plug-In . SVG Version: 6.00 Build 0)  -->
<svg version="1.1" id="Слой_1" xmlns="http://www.w3.org/2000/svg" xmlns:xlink="http://www.w3.org/1999/xlink" x="0px" y="0px"
	 viewBox="0 0 32 32" style="enable-background:new 0 0 32 32;" xml:space="preserve">
<style type="text/css">
	.st0{fill:#FFDA44;}
</style>
<title>file_type_sql</title>
<path class="st0" d="M9.1,15.3c2.2,0.8,4.6,1.2,6.9,1.1c2.4,0,4.7-0.3,6.9-1.1c1.7-0.7,2.3-1.4,2.3-1.9v-3.3c-0.6,0.4-1.3,0.7-1.9,1
	C21,12,18.5,12.4,16,12.4c-2.5,0-5-0.4-7.3-1.2c-0.7-0.3-1.3-0.6-1.9-1v3.3C6.7,13.9,7.4,14.6,9.1,15.3z"/>
<path class="st0" d="M9.1,21.5c0.8,0.3,1.6,0.5,2.4,0.7c1.5,0.3,3,0.4,4.5,0.4c1.5,0,3-0.1,4.5-0.4c0.8-0.2,1.6-0.4,2.4-0.7
	c1.7-0.7,2.3-1.4,2.3-1.9v-3.1c-0.5,0.3-1,0.6-1.6,0.8c-2.5,0.9-5.1,1.3-7.7,1.2c-2.6,0-5.2-0.4-7.7-1.3c-0.5-0.2-1.1-0.5-1.6-0.8
	v3.2C6.7,20.1,7.4,20.9,9.1,21.5z"/>
<path class="st0" d="M16,29c5.1,0,9.3-1.6,9.3-3.6v-2.6c-0.5,0.3-0.9,0.5-1.4,0.7l-0.1,0.1c-2.5,0.9-5.1,1.3-7.7,1.3
	c-2.6,0-5.2-0.4-7.7-1.3c-0.1,0-0.1,0-0.1-0.1c-0.5-0.2-1-0.4-1.4-0.7v2.6C6.7,27.4,10.9,29,16,29z"/>
<ellipse class="st0" cx="16" cy="6.6" rx="9.3" ry="3.6"/>
</svg>
